<svg xmlns="http://www.w3.org/2000/svg" viewBox="0 0 652.86 150.14"><g id="bond"><path id="D" d="M776.06,442.48c8.16-.4,18.9-13.73,25.87-27.46,1-1.8,2.39-1.8,3.18-.2.8,1.79,1,7-1.59,12.34-5.37,10.94-17.71,21.49-28.65,20.89-10.75-.6-16.12-6.57-16.12-15.92-6.37,8-15.33,15.32-24.68,15.32-18.51,0-22.09-25.27-5.77-49.15,15.72-23.09,31.64-32,41.59-32,8.16,0,12.14,6.17,11.94,13.53,10.75-20.5,25.87-47.56,33-57.71.11.34,3.61,12.64,3.11,13.34-11.43,15.93-33.16,66.66-43.11,87.75C769.49,434.72,769.29,442.88,776.06,442.48Zm-34.63-36.22c-10.74,17.11-12.93,34.43-5.17,34.63,8,.2,18.7-11.55,28.06-29.66,11.54-22.08,14.53-34.62,8.75-34.82C766.9,376.21,752.38,388.75,741.43,406.26Z" transform="translate(-165.17 -310.71)"/><g id="bon"><g id="bon-2" data-name="bon"><path d="M539.11,445.24c-10.43,1.57-17.92-2.73-22.77-10.86A87.71,87.71,0,0,1,514,449c-.44,1.85-11-11-11-11-.43-2.42,1.53-5.4,2.29-10.21,2.7-17.16,30.48-95.75,41.22-116.68C547.89,308.29,550,321,553,331c-2.12,5.95-10.82,30.27-15.3,42,4.94-6,10.57-10,15.68-10.81,16.73-2.52,21,20.59,13.8,46.22C561,430.48,550.52,443.53,539.11,445.24Zm-.65-64.5C531,391.32,524,409.08,519,425.33c1.25,5.64,4.75,11.56,10.24,11.94,7.13.54,15.29-6.73,23.27-31.27,7.88-23.93,3.71-35.58-.87-35.29C547.45,370.94,543.45,373.75,538.46,380.74Z" transform="translate(-165.17 -310.71)"/><path d="M725.41,413a1.8,1.8,0,0,0-3.39,0c-7.76,14.33-17.11,27.27-25.07,27.47-7.56.2-8.56-8.76-3.38-20.1C698.34,410,711.62,388,716,379c5-10.15-5.12-12.57-11.69-13.37-6.76-.8-19.9,9.95-28.85,19.3,1.86-5.94,4.57-11.17,3.47-15.67a3.35,3.35,0,0,0-2.84-2.51c-2.12-.24-5.27-.54-5.61-.12-10.74,16.31-23.68,30.84-36.22,31a22.72,22.72,0,0,0,.2-3.58c.35-4.23-6.38-3.37-12.43-3.62a79.86,79.86,0,0,0-5.6,5.75A13.91,13.91,0,0,0,620,399a102.52,102.52,0,0,1-7,17.38c-9.55,17.91-21.89,24.87-27.26,20.5s-2.59-22.89,6.17-37.82c4.2-7.07,12.81-14.82,18.43-19.48a4.14,4.14,0,0,1,1.43-1.06c.15-6.45,1.9-13.1-.16-12.89-11.94,1-23.88,12.34-31.65,25.87-8.95,15.52-11.94,33-3.18,44.78,7.76,10.54,17.91,10.74,25.08,8.36,14.72-4.78,27.46-25.28,31.44-42.19a29.64,29.64,0,0,0,18.51-5,182.35,182.35,0,0,0-12.54,27.07c-3.38,9.95-2,16.31,1.59,20.29,1.79,2,3.18.8,3.78-.59,8.16-18.71,17.51-37.81,29.06-50.35,12.73-13.93,23.88-19.1,26.26-18.31,3.39,1.19-13.93,22.29-20.69,41.79-5.77,16.92-1.59,29.26,14.92,29.26,11.74,0,23.88-9.95,29.26-21.1C726.4,419.36,726.4,415.38,725.41,413Z" transform="translate(-165.17 -310.71)"/></g></g></g><g id="Gold"><g id="D-2" data-name="D"><path d="M452.19,448.63c8.16-.4,18.9-13.73,25.87-27.46,1-1.8,2.39-1.8,3.18-.2.8,1.79,1,7-1.59,12.34-5.37,10.94-17.71,21.49-28.66,20.89-10.74-.6-16.12-6.57-16.12-15.92-6.36,8-15.32,15.32-24.67,15.32-18.51,0-22.09-25.27-5.77-49.15,15.72-23.08,31.64-32,41.59-32,8.16,0,12.14,6.17,11.94,13.53,10.74-20.5,25.87-47.56,33-57.71.12.35,3.62,12.64,3.12,13.35-11.43,15.92-33.17,66.65-43.12,87.75C445.62,440.87,445.42,449,452.19,448.63Zm-34.63-36.22c-10.75,17.11-12.93,34.43-5.17,34.63,8,.2,18.7-11.54,28.06-29.66C452,395.3,455,382.76,449.2,382.56,443,382.36,428.51,394.9,417.56,412.41Z" transform="translate(-165.17 -310.71)"/></g><path id="OL" d="M364.87,448.65c9.35.59,23.28-13.54,30.84-28.66,1.2-2.59,3.38-2.79,4.18,0,1,3.18,0,7.36-2,12.14-2.39,5.77-17.11,22.49-32.84,21.89-13.33-.6-20.89-9.75-16.31-31,.59-2.78,1.19-5.17,2-7.76a35.17,35.17,0,0,1-4.58.2,39.31,39.31,0,0,1-7-.6c-5,16.12-16.71,34-30.24,38.21-7.37,2.39-17.72,2.19-25.28-8.36-8.56-11.74-5.57-29.25,3.38-44.77C294.82,386.36,306.56,375,318.5,374c6-.6,9.55,1.19,13.53,6.57,4.78,6.36,10.35,7.56,9.35,21.89a56.38,56.38,0,0,1-1,7.56,48.63,48.63,0,0,0,5.57.4c2,0,4.18,0,6.17-.2,9.55-30.05,34.33-58.34,52-76.85,2.79-3,11.42-6.59,14-4,5.38,5.37,2.39,15.84,0,25-3,11.14-14,29-22,37-9.2,9.21-18.65,19.22-29,24C359,435.49,355.91,448.05,364.87,448.65Zm-46.7-61.26c-5.17,4.18-15.39,12.5-19.57,20.06-8.36,14.93-8.6,28.56-3.43,32.94,5.38,4.57,15.17,2.28,24.92-15.63,3-5.57,8.29-14.6,10.08-19.37C322.41,400.21,318.17,394.75,318.17,387.39Zm72.57-7c8.75-12.74,16.71-30.25,14.13-32-2.19-1.4-17.32,20.1-30.85,45.57-1.59,3-3,6-4.18,8.56C379.19,396.11,386.56,386.36,390.74,380.39Z" transform="translate(-165.17 -310.71)"/><g id="G"><path d="M272,399.51c-1.64.8-5.45,15.57-7.09,21.2a1.5,1.5,0,0,0-.06.29,30.34,30.34,0,0,1-1.93,7,51.47,51.47,0,0,1-38.47,31.84,43.14,43.14,0,0,1-14.45.66c-13-2-24-6.48-32.35-15.74S165.17,423.26,165.17,408q0-31.77,21.91-58.79t53-27q21.19,0,32.18,14.56a2,2,0,0,0,3.35-.24l4.34-8.21a2,2,0,0,1,1.75-1.06h0a2,2,0,0,1,1.85,2.7c-2.67,6.87-9.55,24.4-9.55,22.52,0-7.19-17-20-38-18-33.09,3.15-43.51,34.78-47.76,48s-6.36,25.06-6.36,35.42C181.88,429.39,185,434,190,439c1,1,10.25,10.75,23,10,16-.94,26.56-3.55,32.14-21.62l1.36-4.47q2.24-7.29,2.23-9.82,0-7.08-12.53-7.09h-1a2,2,0,0,1-1.9-2.56l.19-.61a2,2,0,0,1,1.75-1.4C242.17,401,273.47,398.79,272,399.51Z" transform="translate(-165.17 -310.71)"/></g></g></svg>